bw_sq_02
version=1
nRows=9
nColumns=46
inDegrees=yes
endheader
time	ground_force3_vx	ground_force3_vy	ground_force3_vz	ground_force3_px	ground_force3_py	ground_force3_pz	ground_torque3_x	ground_torque3_y	ground_torque3_z	ground_force5_vx	ground_force5_vy	ground_force5_vz	ground_force5_px	ground_force5_py	ground_force5_pz	ground_torque5_x	ground_torque5_y	ground_torque5_z	ground_force4_vx	ground_force4_vy	ground_force4_vz	ground_force4_px	ground_force4_py	ground_force4_pz	ground_torque4_x	ground_torque4_y	ground_torque4_z	ground_force1_vx	ground_force1_vy	ground_force1_vz	ground_force1_px	ground_force1_py	ground_force1_pz	ground_torque1_x	ground_torque1_y	ground_torque1_z	ground_force2_vx	ground_force2_vy	ground_force2_vz	ground_force2_px	ground_force2_py	ground_force2_pz	ground_torque2_x	ground_torque2_y	ground_torque2_z
2.512000	-0.000000	-0.000000	0.000000	0.200000	0.000000	-0.300000	0.000000	0.000000	-0.000000	14.115915	319.787292	35.938461	0.201821	0.000000	-1.327396	0.000027	-0.970383	0.000005	-5.596401	204.961029	-27.032856	0.199748	0.000000	-1.041289	0.000017	-0.270195	0.000003	-0.000000	-0.000000	0.000000	0.200000	0.000000	0.904000	0.000000	0.000000	-0.000000	-0.000000	-0.000000	0.000000	0.400000	0.000000	0.302000	0.000000	0.000000	-0.000000	
2.513000	-0.000000	-0.000000	0.000000	0.200000	0.000000	-0.300000	0.000000	0.000000	-0.000000	14.758728	319.785614	35.457535	0.201320	0.000000	-1.327477	0.000024	-0.575919	0.000004	-5.113274	203.683807	-26.714844	0.199524	0.000000	-1.040817	0.000003	-0.596912	0.000001	-0.000000	-0.000000	0.000000	0.200000	0.000000	0.904000	0.000000	0.000000	-0.000000	-0.000000	-0.000000	0.000000	0.400000	0.000000	0.302000	0.000000	0.000000	-0.000000	
2.514000	-0.000000	-0.000000	0.000000	0.200000	0.000000	-0.300000	0.000000	0.000000	-0.000000	14.759748	319.785309	35.297001	0.201515	0.000000	-1.328834	0.000015	-0.711937	0.000000	-6.082618	205.927094	-26.550232	0.198531	0.000000	-1.039480	0.000014	-0.297628	0.000005	-0.000000	-0.000000	0.000000	0.200000	0.000000	0.904000	0.000000	0.000000	-0.000000	-0.000000	-0.000000	0.000000	0.400000	0.000000	0.302000	0.000000	0.000000	-0.000000	
2.515000	-0.000000	-0.000000	0.000000	0.200000	0.000000	-0.300000	0.000000	0.000000	-0.000000	15.082172	320.739655	35.779282	0.201840	0.000000	-1.328229	0.000016	-0.703839	0.000003	-5.435359	204.006058	-27.677032	0.198976	0.000000	-1.040493	0.000019	-0.350939	0.000002	-0.000000	-0.000000	0.000000	0.200000	0.000000	0.904000	0.000000	0.000000	-0.000000	-0.000000	-0.000000	0.000000	0.400000	0.000000	0.302000	0.000000	0.000000	-0.000000	
2.516000	-0.000000	-0.000000	0.000000	0.200000	0.000000	-0.300000	0.000000	0.000000	-0.000000	15.081664	319.781647	35.297001	0.201167	0.000000	-1.327947	0.000026	-0.630002	-0.000000	-6.406247	204.324951	-27.194410	0.198936	0.000000	-1.039153	-0.000005	-0.245724	0.000001	-0.000000	-0.000000	0.000000	0.200000	0.000000	0.904000	0.000000	0.000000	-0.000000	-0.000000	-0.000000	0.000000	0.400000	0.000000	0.302000	0.000000	0.000000	-0.000000	
2.517000	-0.000000	-0.000000	0.000000	0.200000	0.000000	-0.300000	0.000000	0.000000	-0.000000	14.599045	322.008911	35.296661	0.200813	0.000000	-1.328639	0.000024	-0.783181	0.000004	-6.082618	205.290680	-26.549212	0.198840	0.000000	-1.037311	0.000000	-0.263973	0.000002	-0.000000	-0.000000	0.000000	0.200000	0.000000	0.904000	0.000000	0.000000	-0.000000	-0.000000	-0.000000	0.000000	0.400000	0.000000	0.302000	0.000000	0.000000	-0.000000	
2.518000	-0.000000	-0.000000	0.000000	0.200000	0.000000	-0.300000	0.000000	0.000000	-0.000000	14.438341	321.695618	34.493313	0.201467	0.000000	-1.327923	0.000023	-0.835885	0.000004	-5.597945	204.647202	-27.356983	0.199260	0.000000	-1.037974	-0.000010	-0.444106	0.000003	-0.000000	-0.000000	0.000000	0.200000	0.000000	0.904000	0.000000	0.000000	-0.000000	-0.000000	-0.000000	0.000000	0.400000	0.000000	0.302000	0.000000	0.000000	-0.000000	
2.519000	-0.000000	-0.000000	0.000000	0.200000	0.000000	-0.300000	0.000000	0.000000	-0.000000	14.759748	321.058533	35.135452	0.201317	0.000000	-1.328750	0.000026	-0.799935	0.000006	-5.111729	203.686508	-26.068628	0.198879	0.000000	-1.039988	0.000012	-0.475602	0.000004	-0.000000	-0.000000	0.000000	0.200000	0.000000	0.904000	0.000000	0.000000	-0.000000	-0.000000	-0.000000	0.000000	0.400000	0.000000	0.302000	0.000000	0.000000	-0.000000	
2.520000	-0.000000	-0.000000	0.000000	0.200000	0.000000	-0.300000	0.000000	0.000000	-0.000000	15.404598	320.099548	35.458214	0.200916	0.000000	-1.327892	0.000011	-0.634581	-0.000001	-4.950686	205.281937	-26.551252	0.199396	0.000000	-1.037987	0.000022	-0.507598	0.000002	-0.000000	-0.000000	0.000000	0.200000	0.000000	0.904000	0.000000	0.000000	-0.000000	-0.000000	-0.000000	0.000000	0.400000	0.000000	0.302000	0.000000	0.000000	-0.000000	
